<svg xmlns="http://www.w3.org/2000/svg" width="1200" height="300" viewBox="0 0 1200 300" role="img" aria-label="Akshay Bhardwaj — agent lattice">
  <defs>
    <linearGradient id="beam" x1="0" y1="1" x2="1" y2="0">
      <stop offset="0" stop-color="#22d3ee"/>
      <stop offset="0.5" stop-color="#5b9bff"/>
      <stop offset="1" stop-color="#a78bfa"/>
    </linearGradient>
    <radialGradient id="glow" cx="0.5" cy="0.5" r="0.5">
      <stop offset="0" stop-color="#1b3a5b" stop-opacity="0.55"/>
      <stop offset="1" stop-color="#0b0f12" stop-opacity="0"/>
    </radialGradient>
  </defs>
  <rect width="1200" height="300" fill="#0b0f12"/>
  <ellipse cx="600" cy="150" rx="520" ry="150" fill="url(#glow)"/>
  <circle cx="40" cy="34" r="1" fill="#22d3ee" opacity="0.05"/><circle cx="40" cy="74" r="1" fill="#22d3ee" opacity="0.05"/><circle cx="40" cy="114" r="1" fill="#22d3ee" opacity="0.05"/><circle cx="40" cy="154" r="1" fill="#22d3ee" opacity="0.05"/><circle cx="40" cy="194" r="1" fill="#22d3ee" opacity="0.05"/><circle cx="40" cy="234" r="1" fill="#22d3ee" opacity="0.05"/><circle cx="40" cy="274" r="1" fill="#22d3ee" opacity="0.05"/><circle cx="80" cy="34" r="1" fill="#22d3ee" opacity="0.05"/><circle cx="80" cy="74" r="1" fill="#22d3ee" opacity="0.05"/><circle cx="80" cy="114" r="1" fill="#22d3ee" opacity="0.05"/><circle cx="80" cy="154" r="1" fill="#22d3ee" opacity="0.05"/><circle cx="80" cy="194" r="1" fill="#22d3ee" opacity="0.05"/><circle cx="80" cy="234" r="1" fill="#22d3ee" opacity="0.05"/><circle cx="80" cy="274" r="1" fill="#22d3ee" opacity="0.05"/><circle cx="120" cy="34" r="1" fill="#22d3ee" opacity="0.05"/><circle cx="120" cy="74" r="1" fill="#22d3ee" opacity="0.05"/><circle cx="120" cy="114" r="1" fill="#22d3ee" opacity="0.05"/><circle cx="120" cy="154" r="1" fill="#22d3ee" opacity="0.05"/><circle cx="120" cy="194" r="1" fill="#22d3ee" opacity="0.05"/><circle cx="120" cy="234" r="1" fill="#22d3ee" opacity="0.05"/><circle cx="120" cy="274" r="1" fill="#22d3ee" opacity="0.05"/><circle cx="160" cy="34" r="1" fill="#22d3ee" opacity="0.05"/><circle cx="160" cy="74" r="1" fill="#22d3ee" opacity="0.05"/><circle cx="160" cy="114" r="1" fill="#22d3ee" opacity="0.05"/><circle cx="160" cy="154" r="1" fill="#22d3ee" opacity="0.05"/><circle cx="160" cy="194" r="1" fill="#22d3ee" opacity="0.05"/><circle cx="160" cy="234" r="1" fill="#22d3ee" opacity="0.05"/><circle cx="160" cy="274" r="1" fill="#22d3ee" opacity="0.05"/><circle cx="200" cy="34" r="1" fill="#22d3ee" opacity="0.05"/><circle cx="200" cy="74" r="1" fill="#22d3ee" opacity="0.05"/><circle cx="200" cy="114" r="1" fill="#22d3ee" opacity="0.05"/><circle cx="200" cy="154" r="1" fill="#22d3ee" opacity="0.05"/><circle cx="200" cy="194" r="1" fill="#22d3ee" opacity="0.05"/><circle cx="200" cy="234" r="1" fill="#22d3ee" opacity="0.05"/><circle cx="200" cy="274" r="1" fill="#22d3ee" opacity="0.05"/><circle cx="240" cy="34" r="1" fill="#22d3ee" opacity="0.05"/><circle cx="240" cy="74" r="1" fill="#22d3ee" opacity="0.05"/><circle cx="240" cy="114" r="1" fill="#22d3ee" opacity="0.05"/><circle cx="240" cy="154" r="1" fill="#22d3ee" opacity="0.05"/><circle cx="240" cy="194" r="1" fill="#22d3ee" opacity="0.05"/><circle cx="240" cy="234" r="1" fill="#22d3ee" opacity="0.05"/><circle cx="240" cy="274" r="1" fill="#22d3ee" opacity="0.05"/><circle cx="280" cy="34" r="1" fill="#22d3ee" opacity="0.05"/><circle cx="280" cy="74" r="1" fill="#22d3ee" opacity="0.05"/><circle cx="280" cy="114" r="1" fill="#22d3ee" opacity="0.05"/><circle cx="280" cy="154" r="1" fill="#22d3ee" opacity="0.05"/><circle cx="280" cy="194" r="1" fill="#22d3ee" opacity="0.05"/><circle cx="280" cy="234" r="1" fill="#22d3ee" opacity="0.05"/><circle cx="280" cy="274" r="1" fill="#22d3ee" opacity="0.05"/><circle cx="320" cy="34" r="1" fill="#22d3ee" opacity="0.05"/><circle cx="320" cy="74" r="1" fill="#22d3ee" opacity="0.05"/><circle cx="320" cy="114" r="1" fill="#22d3ee" opacity="0.05"/><circle cx="320" cy="154" r="1" fill="#22d3ee" opacity="0.05"/><circle cx="320" cy="194" r="1" fill="#22d3ee" opacity="0.05"/><circle cx="320" cy="234" r="1" fill="#22d3ee" opacity="0.05"/><circle cx="320" cy="274" r="1" fill="#22d3ee" opacity="0.05"/><circle cx="360" cy="34" r="1" fill="#22d3ee" opacity="0.05"/><circle cx="360" cy="74" r="1" fill="#22d3ee" opacity="0.05"/><circle cx="360" cy="114" r="1" fill="#22d3ee" opacity="0.05"/><circle cx="360" cy="154" r="1" fill="#22d3ee" opacity="0.05"/><circle cx="360" cy="194" r="1" fill="#22d3ee" opacity="0.05"/><circle cx="360" cy="234" r="1" fill="#22d3ee" opacity="0.05"/><circle cx="360" cy="274" r="1" fill="#22d3ee" opacity="0.05"/><circle cx="400" cy="34" r="1" fill="#22d3ee" opacity="0.05"/><circle cx="400" cy="74" r="1" fill="#22d3ee" opacity="0.05"/><circle cx="400" cy="114" r="1" fill="#22d3ee" opacity="0.05"/><circle cx="400" cy="154" r="1" fill="#22d3ee" opacity="0.05"/><circle cx="400" cy="194" r="1" fill="#22d3ee" opacity="0.05"/><circle cx="400" cy="234" r="1" fill="#22d3ee" opacity="0.05"/><circle cx="400" cy="274" r="1" fill="#22d3ee" opacity="0.05"/><circle cx="440" cy="34" r="1" fill="#22d3ee" opacity="0.05"/><circle cx="440" cy="74" r="1" fill="#22d3ee" opacity="0.05"/><circle cx="440" cy="114" r="1" fill="#22d3ee" opacity="0.05"/><circle cx="440" cy="154" r="1" fill="#22d3ee" opacity="0.05"/><circle cx="440" cy="194" r="1" fill="#22d3ee" opacity="0.05"/><circle cx="440" cy="234" r="1" fill="#22d3ee" opacity="0.05"/><circle cx="440" cy="274" r="1" fill="#22d3ee" opacity="0.05"/><circle cx="480" cy="34" r="1" fill="#22d3ee" opacity="0.05"/><circle cx="480" cy="74" r="1" fill="#22d3ee" opacity="0.05"/><circle cx="480" cy="114" r="1" fill="#22d3ee" opacity="0.05"/><circle cx="480" cy="154" r="1" fill="#22d3ee" opacity="0.05"/><circle cx="480" cy="194" r="1" fill="#22d3ee" opacity="0.05"/><circle cx="480" cy="234" r="1" fill="#22d3ee" opacity="0.05"/><circle cx="480" cy="274" r="1" fill="#22d3ee" opacity="0.05"/><circle cx="520" cy="34" r="1" fill="#22d3ee" opacity="0.05"/><circle cx="520" cy="74" r="1" fill="#22d3ee" opacity="0.05"/><circle cx="520" cy="114" r="1" fill="#22d3ee" opacity="0.05"/><circle cx="520" cy="154" r="1" fill="#22d3ee" opacity="0.05"/><circle cx="520" cy="194" r="1" fill="#22d3ee" opacity="0.05"/><circle cx="520" cy="234" r="1" fill="#22d3ee" opacity="0.05"/><circle cx="520" cy="274" r="1" fill="#22d3ee" opacity="0.05"/><circle cx="560" cy="34" r="1" fill="#22d3ee" opacity="0.05"/><circle cx="560" cy="74" r="1" fill="#22d3ee" opacity="0.05"/><circle cx="560" cy="114" r="1" fill="#22d3ee" opacity="0.05"/><circle cx="560" cy="154" r="1" fill="#22d3ee" opacity="0.05"/><circle cx="560" cy="194" r="1" fill="#22d3ee" opacity="0.05"/><circle cx="560" cy="234" r="1" fill="#22d3ee" opacity="0.05"/><circle cx="560" cy="274" r="1" fill="#22d3ee" opacity="0.05"/><circle cx="600" cy="34" r="1" fill="#22d3ee" opacity="0.05"/><circle cx="600" cy="74" r="1" fill="#22d3ee" opacity="0.05"/><circle cx="600" cy="114" r="1" fill="#22d3ee" opacity="0.05"/><circle cx="600" cy="154" r="1" fill="#22d3ee" opacity="0.05"/><circle cx="600" cy="194" r="1" fill="#22d3ee" opacity="0.05"/><circle cx="600" cy="234" r="1" fill="#22d3ee" opacity="0.05"/><circle cx="600" cy="274" r="1" fill="#22d3ee" opacity="0.05"/><circle cx="640" cy="34" r="1" fill="#22d3ee" opacity="0.05"/><circle cx="640" cy="74" r="1" fill="#22d3ee" opacity="0.05"/><circle cx="640" cy="114" r="1" fill="#22d3ee" opacity="0.05"/><circle cx="640" cy="154" r="1" fill="#22d3ee" opacity="0.05"/><circle cx="640" cy="194" r="1" fill="#22d3ee" opacity="0.05"/><circle cx="640" cy="234" r="1" fill="#22d3ee" opacity="0.05"/><circle cx="640" cy="274" r="1" fill="#22d3ee" opacity="0.05"/><circle cx="680" cy="34" r="1" fill="#22d3ee" opacity="0.05"/><circle cx="680" cy="74" r="1" fill="#22d3ee" opacity="0.05"/><circle cx="680" cy="114" r="1" fill="#22d3ee" opacity="0.05"/><circle cx="680" cy="154" r="1" fill="#22d3ee" opacity="0.05"/><circle cx="680" cy="194" r="1" fill="#22d3ee" opacity="0.05"/><circle cx="680" cy="234" r="1" fill="#22d3ee" opacity="0.05"/><circle cx="680" cy="274" r="1" fill="#22d3ee" opacity="0.05"/><circle cx="720" cy="34" r="1" fill="#22d3ee" opacity="0.05"/><circle cx="720" cy="74" r="1" fill="#22d3ee" opacity="0.05"/><circle cx="720" cy="114" r="1" fill="#22d3ee" opacity="0.05"/><circle cx="720" cy="154" r="1" fill="#22d3ee" opacity="0.05"/><circle cx="720" cy="194" r="1" fill="#22d3ee" opacity="0.05"/><circle cx="720" cy="234" r="1" fill="#22d3ee" opacity="0.05"/><circle cx="720" cy="274" r="1" fill="#22d3ee" opacity="0.05"/><circle cx="760" cy="34" r="1" fill="#22d3ee" opacity="0.05"/><circle cx="760" cy="74" r="1" fill="#22d3ee" opacity="0.05"/><circle cx="760" cy="114" r="1" fill="#22d3ee" opacity="0.05"/><circle cx="760" cy="154" r="1" fill="#22d3ee" opacity="0.05"/><circle cx="760" cy="194" r="1" fill="#22d3ee" opacity="0.05"/><circle cx="760" cy="234" r="1" fill="#22d3ee" opacity="0.05"/><circle cx="760" cy="274" r="1" fill="#22d3ee" opacity="0.05"/><circle cx="800" cy="34" r="1" fill="#22d3ee" opacity="0.05"/><circle cx="800" cy="74" r="1" fill="#22d3ee" opacity="0.05"/><circle cx="800" cy="114" r="1" fill="#22d3ee" opacity="0.05"/><circle cx="800" cy="154" r="1" fill="#22d3ee" opacity="0.05"/><circle cx="800" cy="194" r="1" fill="#22d3ee" opacity="0.05"/><circle cx="800" cy="234" r="1" fill="#22d3ee" opacity="0.05"/><circle cx="800" cy="274" r="1" fill="#22d3ee" opacity="0.05"/><circle cx="840" cy="34" r="1" fill="#22d3ee" opacity="0.05"/><circle cx="840" cy="74" r="1" fill="#22d3ee" opacity="0.05"/><circle cx="840" cy="114" r="1" fill="#22d3ee" opacity="0.05"/><circle cx="840" cy="154" r="1" fill="#22d3ee" opacity="0.05"/><circle cx="840" cy="194" r="1" fill="#22d3ee" opacity="0.05"/><circle cx="840" cy="234" r="1" fill="#22d3ee" opacity="0.05"/><circle cx="840" cy="274" r="1" fill="#22d3ee" opacity="0.05"/><circle cx="880" cy="34" r="1" fill="#22d3ee" opacity="0.05"/><circle cx="880" cy="74" r="1" fill="#22d3ee" opacity="0.05"/><circle cx="880" cy="114" r="1" fill="#22d3ee" opacity="0.05"/><circle cx="880" cy="154" r="1" fill="#22d3ee" opacity="0.05"/><circle cx="880" cy="194" r="1" fill="#22d3ee" opacity="0.05"/><circle cx="880" cy="234" r="1" fill="#22d3ee" opacity="0.05"/><circle cx="880" cy="274" r="1" fill="#22d3ee" opacity="0.05"/><circle cx="920" cy="34" r="1" fill="#22d3ee" opacity="0.05"/><circle cx="920" cy="74" r="1" fill="#22d3ee" opacity="0.05"/><circle cx="920" cy="114" r="1" fill="#22d3ee" opacity="0.05"/><circle cx="920" cy="154" r="1" fill="#22d3ee" opacity="0.05"/><circle cx="920" cy="194" r="1" fill="#22d3ee" opacity="0.05"/><circle cx="920" cy="234" r="1" fill="#22d3ee" opacity="0.05"/><circle cx="920" cy="274" r="1" fill="#22d3ee" opacity="0.05"/><circle cx="960" cy="34" r="1" fill="#22d3ee" opacity="0.05"/><circle cx="960" cy="74" r="1" fill="#22d3ee" opacity="0.05"/><circle cx="960" cy="114" r="1" fill="#22d3ee" opacity="0.05"/><circle cx="960" cy="154" r="1" fill="#22d3ee" opacity="0.05"/><circle cx="960" cy="194" r="1" fill="#22d3ee" opacity="0.05"/><circle cx="960" cy="234" r="1" fill="#22d3ee" opacity="0.05"/><circle cx="960" cy="274" r="1" fill="#22d3ee" opacity="0.05"/><circle cx="1000" cy="34" r="1" fill="#22d3ee" opacity="0.05"/><circle cx="1000" cy="74" r="1" fill="#22d3ee" opacity="0.05"/><circle cx="1000" cy="114" r="1" fill="#22d3ee" opacity="0.05"/><circle cx="1000" cy="154" r="1" fill="#22d3ee" opacity="0.05"/><circle cx="1000" cy="194" r="1" fill="#22d3ee" opacity="0.05"/><circle cx="1000" cy="234" r="1" fill="#22d3ee" opacity="0.05"/><circle cx="1000" cy="274" r="1" fill="#22d3ee" opacity="0.05"/><circle cx="1040" cy="34" r="1" fill="#22d3ee" opacity="0.05"/><circle cx="1040" cy="74" r="1" fill="#22d3ee" opacity="0.05"/><circle cx="1040" cy="114" r="1" fill="#22d3ee" opacity="0.05"/><circle cx="1040" cy="154" r="1" fill="#22d3ee" opacity="0.05"/><circle cx="1040" cy="194" r="1" fill="#22d3ee" opacity="0.05"/><circle cx="1040" cy="234" r="1" fill="#22d3ee" opacity="0.05"/><circle cx="1040" cy="274" r="1" fill="#22d3ee" opacity="0.05"/><circle cx="1080" cy="34" r="1" fill="#22d3ee" opacity="0.05"/><circle cx="1080" cy="74" r="1" fill="#22d3ee" opacity="0.05"/><circle cx="1080" cy="114" r="1" fill="#22d3ee" opacity="0.05"/><circle cx="1080" cy="154" r="1" fill="#22d3ee" opacity="0.05"/><circle cx="1080" cy="194" r="1" fill="#22d3ee" opacity="0.05"/><circle cx="1080" cy="234" r="1" fill="#22d3ee" opacity="0.05"/><circle cx="1080" cy="274" r="1" fill="#22d3ee" opacity="0.05"/><circle cx="1120" cy="34" r="1" fill="#22d3ee" opacity="0.05"/><circle cx="1120" cy="74" r="1" fill="#22d3ee" opacity="0.05"/><circle cx="1120" cy="114" r="1" fill="#22d3ee" opacity="0.05"/><circle cx="1120" cy="154" r="1" fill="#22d3ee" opacity="0.05"/><circle cx="1120" cy="194" r="1" fill="#22d3ee" opacity="0.05"/><circle cx="1120" cy="234" r="1" fill="#22d3ee" opacity="0.05"/><circle cx="1120" cy="274" r="1" fill="#22d3ee" opacity="0.05"/><circle cx="1160" cy="34" r="1" fill="#22d3ee" opacity="0.05"/><circle cx="1160" cy="74" r="1" fill="#22d3ee" opacity="0.05"/><circle cx="1160" cy="114" r="1" fill="#22d3ee" opacity="0.05"/><circle cx="1160" cy="154" r="1" fill="#22d3ee" opacity="0.05"/><circle cx="1160" cy="194" r="1" fill="#22d3ee" opacity="0.05"/><circle cx="1160" cy="234" r="1" fill="#22d3ee" opacity="0.05"/><circle cx="1160" cy="274" r="1" fill="#22d3ee" opacity="0.05"/>
  <g><line x1="90.0" y1="214" x2="345.0" y2="96" stroke="url(#beam)" stroke-width="1.1" opacity="0.06"/><line x1="90.0" y1="214" x2="1025.0" y2="96" stroke="url(#beam)" stroke-width="1.1" opacity="0.16"/><line x1="90.0" y1="214" x2="515.0" y2="96" stroke="url(#beam)" stroke-width="1.1" opacity="0.33"/><line x1="90.0" y1="214" x2="1110.0" y2="96" stroke="url(#beam)" stroke-width="1.1" opacity="0.32"/><line x1="175.0" y1="214" x2="345.0" y2="96" stroke="url(#beam)" stroke-width="1.1" opacity="0.22"/><line x1="175.0" y1="214" x2="855.0" y2="96" stroke="url(#beam)" stroke-width="1.1" opacity="0.23"/><line x1="175.0" y1="214" x2="855.0" y2="96" stroke="url(#beam)" stroke-width="1.1" opacity="0.20"/><line x1="175.0" y1="214" x2="600.0" y2="96" stroke="url(#beam)" stroke-width="1.1" opacity="0.14"/><line x1="260.0" y1="214" x2="1025.0" y2="96" stroke="url(#beam)" stroke-width="1.1" opacity="0.39"/><line x1="260.0" y1="214" x2="855.0" y2="96" stroke="url(#beam)" stroke-width="1.1" opacity="0.31"/><line x1="260.0" y1="214" x2="430.0" y2="96" stroke="url(#beam)" stroke-width="1.1" opacity="0.19"/><line x1="345.0" y1="214" x2="430.0" y2="96" stroke="url(#beam)" stroke-width="1.1" opacity="0.37"/><line x1="345.0" y1="214" x2="600.0" y2="96" stroke="url(#beam)" stroke-width="1.1" opacity="0.23"/><line x1="345.0" y1="214" x2="515.0" y2="96" stroke="url(#beam)" stroke-width="1.1" opacity="0.24"/><line x1="430.0" y1="214" x2="600.0" y2="96" stroke="url(#beam)" stroke-width="1.1" opacity="0.32"/><line x1="430.0" y1="214" x2="345.0" y2="96" stroke="url(#beam)" stroke-width="1.1" opacity="0.17"/><line x1="430.0" y1="214" x2="175.0" y2="96" stroke="url(#beam)" stroke-width="1.1" opacity="0.17"/><line x1="515.0" y1="214" x2="1110.0" y2="96" stroke="url(#beam)" stroke-width="1.1" opacity="0.22"/><line x1="515.0" y1="214" x2="770.0" y2="96" stroke="url(#beam)" stroke-width="1.1" opacity="0.27"/><line x1="600.0" y1="214" x2="600.0" y2="96" stroke="url(#beam)" stroke-width="1.1" opacity="0.34"/><line x1="600.0" y1="214" x2="600.0" y2="96" stroke="url(#beam)" stroke-width="1.1" opacity="0.16"/><line x1="685.0" y1="214" x2="260.0" y2="96" stroke="url(#beam)" stroke-width="1.1" opacity="0.11"/><line x1="685.0" y1="214" x2="345.0" y2="96" stroke="url(#beam)" stroke-width="1.1" opacity="0.39"/><line x1="685.0" y1="214" x2="430.0" y2="96" stroke="url(#beam)" stroke-width="1.1" opacity="0.08"/><line x1="685.0" y1="214" x2="600.0" y2="96" stroke="url(#beam)" stroke-width="1.1" opacity="0.30"/><line x1="770.0" y1="214" x2="1025.0" y2="96" stroke="url(#beam)" stroke-width="1.1" opacity="0.06"/><line x1="770.0" y1="214" x2="1025.0" y2="96" stroke="url(#beam)" stroke-width="1.1" opacity="0.33"/><line x1="770.0" y1="214" x2="770.0" y2="96" stroke="url(#beam)" stroke-width="1.1" opacity="0.33"/><line x1="770.0" y1="214" x2="1110.0" y2="96" stroke="url(#beam)" stroke-width="1.1" opacity="0.22"/><line x1="855.0" y1="214" x2="345.0" y2="96" stroke="url(#beam)" stroke-width="1.1" opacity="0.21"/><line x1="855.0" y1="214" x2="430.0" y2="96" stroke="url(#beam)" stroke-width="1.1" opacity="0.23"/><line x1="855.0" y1="214" x2="345.0" y2="96" stroke="url(#beam)" stroke-width="1.1" opacity="0.34"/><line x1="940.0" y1="214" x2="770.0" y2="96" stroke="url(#beam)" stroke-width="1.1" opacity="0.12"/><line x1="940.0" y1="214" x2="1025.0" y2="96" stroke="url(#beam)" stroke-width="1.1" opacity="0.24"/><line x1="940.0" y1="214" x2="940.0" y2="96" stroke="url(#beam)" stroke-width="1.1" opacity="0.21"/><line x1="1025.0" y1="214" x2="685.0" y2="96" stroke="url(#beam)" stroke-width="1.1" opacity="0.37"/><line x1="1025.0" y1="214" x2="430.0" y2="96" stroke="url(#beam)" stroke-width="1.1" opacity="0.17"/><line x1="1025.0" y1="214" x2="1025.0" y2="96" stroke="url(#beam)" stroke-width="1.1" opacity="0.36"/><line x1="1025.0" y1="214" x2="90.0" y2="96" stroke="url(#beam)" stroke-width="1.1" opacity="0.21"/><line x1="1110.0" y1="214" x2="1110.0" y2="96" stroke="url(#beam)" stroke-width="1.1" opacity="0.37"/><line x1="1110.0" y1="214" x2="260.0" y2="96" stroke="url(#beam)" stroke-width="1.1" opacity="0.33"/><line x1="1110.0" y1="214" x2="345.0" y2="96" stroke="url(#beam)" stroke-width="1.1" opacity="0.25"/><line x1="1110.0" y1="214" x2="90.0" y2="96" stroke="url(#beam)" stroke-width="1.1" opacity="0.27"/></g>
  <circle cx="90.0" cy="96" r="6.5" fill="none" stroke="#8fd3ff" stroke-width="1" opacity="0.35"/><circle cx="90.0" cy="96" r="3.1" fill="#8fd3ff"/><circle cx="175.0" cy="96" r="6.5" fill="none" stroke="#8fd3ff" stroke-width="1" opacity="0.35"/><circle cx="175.0" cy="96" r="3.1" fill="#8fd3ff"/><circle cx="260.0" cy="96" r="6.5" fill="none" stroke="#8fd3ff" stroke-width="1" opacity="0.35"/><circle cx="260.0" cy="96" r="3.1" fill="#8fd3ff"/><circle cx="345.0" cy="96" r="6.5" fill="none" stroke="#8fd3ff" stroke-width="1" opacity="0.35"/><circle cx="345.0" cy="96" r="3.1" fill="#8fd3ff"/><circle cx="430.0" cy="96" r="6.5" fill="none" stroke="#8fd3ff" stroke-width="1" opacity="0.35"/><circle cx="430.0" cy="96" r="3.1" fill="#8fd3ff"/><circle cx="515.0" cy="96" r="6.5" fill="none" stroke="#8fd3ff" stroke-width="1" opacity="0.35"/><circle cx="515.0" cy="96" r="3.1" fill="#8fd3ff"/><circle cx="600.0" cy="96" r="6.5" fill="none" stroke="#8fd3ff" stroke-width="1" opacity="0.35"/><circle cx="600.0" cy="96" r="3.1" fill="#8fd3ff"/><circle cx="685.0" cy="96" r="6.5" fill="none" stroke="#8fd3ff" stroke-width="1" opacity="0.35"/><circle cx="685.0" cy="96" r="3.1" fill="#8fd3ff"/><circle cx="770.0" cy="96" r="6.5" fill="none" stroke="#8fd3ff" stroke-width="1" opacity="0.35"/><circle cx="770.0" cy="96" r="3.1" fill="#8fd3ff"/><circle cx="855.0" cy="96" r="6.5" fill="none" stroke="#8fd3ff" stroke-width="1" opacity="0.35"/><circle cx="855.0" cy="96" r="3.1" fill="#8fd3ff"/><circle cx="940.0" cy="96" r="6.5" fill="none" stroke="#8fd3ff" stroke-width="1" opacity="0.35"/><circle cx="940.0" cy="96" r="3.1" fill="#8fd3ff"/><circle cx="1025.0" cy="96" r="6.5" fill="none" stroke="#8fd3ff" stroke-width="1" opacity="0.35"/><circle cx="1025.0" cy="96" r="3.1" fill="#8fd3ff"/><circle cx="1110.0" cy="96" r="6.5" fill="none" stroke="#8fd3ff" stroke-width="1" opacity="0.35"/><circle cx="1110.0" cy="96" r="3.1" fill="#8fd3ff"/>
  <circle cx="90.0" cy="214" r="6.5" fill="none" stroke="#22d3ee" stroke-width="1" opacity="0.35"/><circle cx="90.0" cy="214" r="3.1" fill="#22d3ee"/><circle cx="175.0" cy="214" r="6.5" fill="none" stroke="#22d3ee" stroke-width="1" opacity="0.35"/><circle cx="175.0" cy="214" r="3.1" fill="#22d3ee"/><circle cx="260.0" cy="214" r="6.5" fill="none" stroke="#22d3ee" stroke-width="1" opacity="0.35"/><circle cx="260.0" cy="214" r="3.1" fill="#22d3ee"/><circle cx="345.0" cy="214" r="6.5" fill="none" stroke="#22d3ee" stroke-width="1" opacity="0.35"/><circle cx="345.0" cy="214" r="3.1" fill="#22d3ee"/><circle cx="430.0" cy="214" r="6.5" fill="none" stroke="#22d3ee" stroke-width="1" opacity="0.35"/><circle cx="430.0" cy="214" r="3.1" fill="#22d3ee"/><circle cx="515.0" cy="214" r="6.5" fill="none" stroke="#22d3ee" stroke-width="1" opacity="0.35"/><circle cx="515.0" cy="214" r="3.1" fill="#22d3ee"/><circle cx="600.0" cy="214" r="6.5" fill="none" stroke="#22d3ee" stroke-width="1" opacity="0.35"/><circle cx="600.0" cy="214" r="3.1" fill="#22d3ee"/><circle cx="685.0" cy="214" r="6.5" fill="none" stroke="#22d3ee" stroke-width="1" opacity="0.35"/><circle cx="685.0" cy="214" r="3.1" fill="#22d3ee"/><circle cx="770.0" cy="214" r="6.5" fill="none" stroke="#22d3ee" stroke-width="1" opacity="0.35"/><circle cx="770.0" cy="214" r="3.1" fill="#22d3ee"/><circle cx="855.0" cy="214" r="6.5" fill="none" stroke="#22d3ee" stroke-width="1" opacity="0.35"/><circle cx="855.0" cy="214" r="3.1" fill="#22d3ee"/><circle cx="940.0" cy="214" r="6.5" fill="none" stroke="#22d3ee" stroke-width="1" opacity="0.35"/><circle cx="940.0" cy="214" r="3.1" fill="#22d3ee"/><circle cx="1025.0" cy="214" r="6.5" fill="none" stroke="#22d3ee" stroke-width="1" opacity="0.35"/><circle cx="1025.0" cy="214" r="3.1" fill="#22d3ee"/><circle cx="1110.0" cy="214" r="6.5" fill="none" stroke="#22d3ee" stroke-width="1" opacity="0.35"/><circle cx="1110.0" cy="214" r="3.1" fill="#22d3ee"/>
</svg>